# xmcd
#
# Track frame offsets: 
#        150
#        22791
#        25767
#        48432
#        71414
#        92492
#        115027
#        135384
#        158087
#        177587
#        199028
#        221669
#        245122
#        256237
#
# Disc length: 3723 seconds
#
# Revision: 0
# Processed by: cddbd v1.5.1PL0 Copyright (c) Steve Scherf et al.
# Submitted via: ExactAudioCopy v0.95a5
#
DISCID=b60e890e
DTITLE=Sheila Majid - Ku Mohon - Limited Edition
DYEAR=1900
DGENRE=Blues
TTITLE0=Jatuh Cinta (Freedom Mix)
TTITLE1=Ada-Ada Saja (Prolog)
TTITLE2=Ada-Ada Saja
TTITLE3=Ku Mohon
TTITLE4=Rahsia Hati
TTITLE5=Jujur Saja
TTITLE6=Camar
TTITLE7=Jatuh Cinta
TTITLE8=Di Suatu Masa
TTITLE9=Catat
TTITLE10=Rindu
TTITLE11=Umaraku
TTITLE12=Ku Mohon (Versi Istimewa)
TTITLE13=Jatuh Cinta (Full Mondo Club Mix)
EXTD=
EXTT0=
EXTT1=
EXTT2=
EXTT3=
EXTT4=
EXTT5=
EXTT6=
EXTT7=
EXTT8=
EXTT9=
EXTT10=
EXTT11=
EXTT12=
EXTT13=
PLAYORDER=
